<svg width="25" height="25" viewBox="0 0 25 25" fill="none" xmlns="http://www.w3.org/2000/svg">
<path d="M19.7858 14.1826C20.6064 13.9129 21.5715 14.5228 21.2833 15.3371C20.9659 16.2336 20.5068 17.0786 19.9193 17.8385C18.8737 19.1909 17.4645 20.2175 15.8568 20.7982C14.249 21.379 12.509 21.4898 10.8406 21.1178C9.17207 20.7457 7.64405 19.9062 6.43528 18.6975C5.22651 17.4887 4.387 15.9607 4.01496 14.2922C3.64293 12.6237 3.75377 10.8838 4.33452 9.27598C4.91526 7.66819 5.94189 6.25905 7.29427 5.21343C8.05412 4.62595 8.89914 4.16687 9.79568 3.84947C10.61 3.56119 11.2198 4.52634 10.9501 5.34697C10.6659 6.21193 10.5508 7.13087 10.6196 8.0531C10.7443 9.72506 11.4649 11.2967 12.6505 12.4823C13.836 13.6678 15.4077 14.3885 17.0796 14.5131C18.0019 14.5819 18.9208 14.4669 19.7858 14.1826Z" stroke="black" stroke-width="2.5" stroke-linecap="round" stroke-linejoin="round"/>
</svg>
