<svg width="24" height="21" viewBox="0 0 24 21" fill="none" xmlns="http://www.w3.org/2000/svg">
<path d="M20.4578 3.57168C19.9691 3.07341 19.3889 2.67815 18.7503 2.40848C18.1117 2.1388 17.4272 2 16.7359 2C16.0446 2 15.3601 2.1388 14.7215 2.40848C14.0829 2.67815 13.5026 3.07341 13.0139 3.57168L11.9997 4.60529L10.9855 3.57168C9.99842 2.56569 8.6596 2.00052 7.26361 2.00052C5.86761 2.00052 4.52879 2.56569 3.54168 3.57168C2.55456 4.57768 2 5.94211 2 7.36481C2 8.7875 2.55456 10.1519 3.54168 11.1579L4.55588 12.1915L10.5722 18.3229C11.3562 19.1219 12.6433 19.1219 13.4273 18.3229L19.4436 12.1915L20.4578 11.1579C20.9467 10.6599 21.3346 10.0686 21.5992 9.41773C21.8638 8.76689 22 8.0693 22 7.36481C22 6.66031 21.8638 5.96272 21.5992 5.31188C21.3346 4.66105 20.9467 4.06972 20.4578 3.57168Z" fill="#8C82FF" stroke="#8C82FF" stroke-width="3" stroke-linecap="round" stroke-linejoin="round"/>
</svg>
