<svg width="22" height="23" viewBox="0 0 22 23" fill="none" xmlns="http://www.w3.org/2000/svg">
<path d="M2 10.4454C2 8.90247 2.71236 7.44594 3.9303 6.49866L8.54424 2.91004C9.98868 1.78658 12.0113 1.78658 13.4558 2.91004L18.0697 6.49866C19.2876 7.44594 20 8.90247 20 10.4454V19C20 19.5304 19.7893 20.0391 19.4142 20.4142C19.0391 20.7893 18.5304 21 18 21H4C3.46957 21 2.96086 20.7893 2.58579 20.4142C2.21071 20.0391 2 19.5304 2 19V10.4454Z" stroke="#27A8F8" stroke-width="2.5" stroke-linecap="round" stroke-linejoin="round"/>
<path d="M8 21V14C8 12.3431 9.34315 11 11 11V11C12.6569 11 14 12.3431 14 14V21" stroke="#27A8F8" stroke-width="2.5" stroke-linecap="round" stroke-linejoin="round"/>
</svg>
