<svg width="24" height="24" viewBox="0 0 24 24" fill="none" xmlns="http://www.w3.org/2000/svg">
<path d="M7.91772 14.3213L7.26136 7.80271C7.21995 7.39139 7.54287 7.03431 7.95627 7.0343C8.66443 7.03428 9.30649 7.45041 9.5957 8.09682L10.0441 9.09897L13.4989 5.73643C13.927 5.31981 14.4663 5.03582 15.0521 4.91866L17.0632 4.51638C18.5399 4.221 19.9032 5.38687 19.8405 6.89154L19.6281 11.9889C19.5944 12.7965 19.309 13.5732 18.8117 14.2104L14.6222 19.5783M7.91772 14.3213L14.6222 19.5783M7.91772 14.3213L6.484 16.1498C6.2305 16.4731 6.11582 16.8839 6.16518 17.2917C6.21453 17.6996 6.42389 18.0711 6.74719 18.3246L11.0137 21.67C11.337 21.9234 11.7478 22.0381 12.1556 21.9888C12.5635 21.9394 12.935 21.7301 13.1885 21.4068L14.6222 19.5783M4.86042 7.42157L5.43372 13.5387L4 15.3672M10.6693 5.09809L12.3086 3.45884C12.7542 3.01325 13.3251 2.71413 13.9451 2.6014L17.2528 2" stroke="#141414" stroke-width="1.5" stroke-linecap="round" stroke-linejoin="round"/>
</svg>
