<svg width="24" height="24" viewBox="0 0 24 24" fill="none" xmlns="http://www.w3.org/2000/svg">
<path fill-rule="evenodd" clip-rule="evenodd" d="M7.8135 13.2865L15.081 18.9849L18.8117 14.2105C19.309 13.5733 19.5944 12.7965 19.6281 11.989L19.8405 6.89164C19.9031 5.38696 18.5399 4.22109 17.0632 4.51647L15.052 4.91875C14.4663 5.03591 13.9269 5.3199 13.4989 5.73653L10.044 9.09906L9.59568 8.09691C9.30647 7.4505 8.66441 7.03437 7.95625 7.03439C7.54286 7.0344 7.21993 7.39149 7.26134 7.8028L7.8135 13.2865ZM14.1574 20.1669L7.45498 14.9115L6.48398 16.1499C6.23048 16.4732 6.1158 16.8839 6.16516 17.2918C6.21451 17.6997 6.42387 18.0712 6.74717 18.3247L11.0137 21.67C11.337 21.9235 11.7477 22.0382 12.1556 21.9889C12.5635 21.9395 12.935 21.7302 13.1885 21.4069L14.1574 20.1669Z" fill="#141414"/>
<path d="M4.86042 7.42157L5.43372 13.5387L4 15.3672M10.6693 5.09809L12.3086 3.45884C12.7542 3.01325 13.3251 2.71413 13.9451 2.6014L17.2528 2" stroke="#141414" stroke-width="1.5" stroke-linecap="round" stroke-linejoin="round"/>
</svg>
