<svg width="24" height="29" viewBox="0 0 24 29" fill="none" xmlns="http://www.w3.org/2000/svg">
<path d="M7.05823 17.9082L6.2108 9.49198C6.15733 8.96092 6.57427 8.49988 7.10801 8.49987C8.02233 8.49985 8.8513 9.03711 9.2247 9.87171L9.80358 11.1656L14.2642 6.82417C14.8169 6.28627 15.5133 5.9196 16.2695 5.76833L18.8661 5.24894C20.7727 4.86757 22.5329 6.37285 22.4519 8.31556L22.1777 14.8969C22.1343 15.9395 21.7657 16.9424 21.1237 17.765L15.7145 24.6956M7.05823 17.9082L15.7145 24.6956M7.05823 17.9082L5.20713 20.269C4.87984 20.6865 4.73177 21.2168 4.7955 21.7434C4.85922 22.27 5.12953 22.7497 5.54694 23.077L11.0555 27.3962C11.4729 27.7235 12.0033 27.8716 12.5299 27.8079C13.0564 27.7441 13.5362 27.4738 13.8635 27.0564L15.7145 24.6956M3.1109 8.99988L3.8511 16.8978L2 19.2586M10.6109 6L12.7274 3.88353C13.3027 3.30822 14.0398 2.92203 14.8403 2.77648L19.1109 2" stroke="#727272" stroke-width="2.2" stroke-linecap="round" stroke-linejoin="round"/>
</svg>
